<svg xmlns="http://www.w3.org/2000/svg" xmlns:xlink="http://www.w3.org/1999/xlink" width="840" height="494.2"><rect width="840" height="494.2" rx="5" ry="5" class="a"/><svg y="0%" x="0%"><circle cx="20" cy="20" r="6" fill="#ff5f58"/><circle cx="40" cy="20" r="6" fill="#ffbd2e"/><circle cx="60" cy="20" r="6" fill="#18c132"/></svg><svg height="434.2" viewBox="0 0 80 43.42" width="800" x="15" xmlns="http://www.w3.org/2000/svg" xmlns:xlink="http://www.w3.org/1999/xlink" y="50"><style>@keyframes p{0%{transform:translateX(0)}.654%{transform:translateX(-80px)}.729%{transform:translateX(-160px)}.744%{transform:translateX(-240px)}.775%{transform:translateX(-320px)}.794%{transform:translateX(-400px)}.829%{transform:translateX(-480px)}.895%{transform:translateX(-560px)}.923%{transform:translateX(-640px)}.949%{transform:translateX(-720px)}.982%{transform:translateX(-800px)}1.028%{transform:translateX(-880px)}1.055%{transform:translateX(-960px)}1.157%{transform:translateX(-1040px)}1.186%{transform:translateX(-1120px)}1.212%{transform:translateX(-1200px)}1.318%{transform:translateX(-1280px)}1.355%{transform:translateX(-1360px)}1.376%{transform:translateX(-1440px)}1.463%{transform:translateX(-1520px)}1.54%{transform:translateX(-1600px)}1.577%{transform:translateX(-1680px)}1.591%{transform:translateX(-1760px)}1.604%{transform:translateX(-1840px)}1.633%{transform:translateX(-1920px)}1.659%{transform:translateX(-2000px)}1.679%{transform:translateX(-2080px)}1.71%{transform:translateX(-2160px)}1.75%{transform:translateX(-2240px)}1.834%{transform:translateX(-2320px)}1.846%{transform:translateX(-2400px)}1.875%{transform:translateX(-2480px)}1.903%{transform:translateX(-2560px)}2.109%{transform:translateX(-2640px)}2.429%{transform:translateX(-2720px)}8.864%{transform:translateX(-2800px)}15.299%{transform:translateX(-2880px)}21.734%{transform:translateX(-2960px)}28.191%{transform:translateX(-3040px)}34.641%{transform:translateX(-3120px)}41.076%{transform:translateX(-3200px)}47.518%{transform:translateX(-3280px)}53.954%{transform:translateX(-3360px)}60.396%{transform:translateX(-3440px)}66.831%{transform:translateX(-3520px)}73.267%{transform:translateX(-3600px)}79.701%{transform:translateX(-3680px)}86.138%{transform:translateX(-3760px)}87.259%{transform:translateX(-3840px)}87.326%{transform:translateX(-3920px)}87.327%{transform:translateX(-4000px)}87.383%{transform:translateX(-4080px)}to{transform:translateX(-4160px)}}.a{fill:#282d35}.f,.g{fill:#b9c0cb;white-space:pre}.g{fill:#a8cc8c}.j{fill:#71bef2}.k{white-space:pre}.l{fill:#a8cc8c}</style><g font-family="Monaco,Consolas,Menlo,'Bitstream Vera Sans Mono','Powerline Symbols',monospace" font-size="1.67"><defs><symbol id="1"><text y="1.67" class="f">ktime</text></symbol><symbol id="2"><text y="1.67" class="f">ktime</text><text x="6.012" y="1.67" class="f">apply</text></symbol><symbol id="3"><text y="1.67" class="f">ktime</text><text x="6.012" y="1.67" class="f">apply</text><text x="12.024" y="1.67" class="f">-f</text></symbol><symbol id="4"><text y="1.67" class="f">ktime</text><text x="6.012" y="1.67" class="f">apply</text><text x="12.024" y="1.67" class="f">-f</text><text x="15.03" y="1.67" class="f">pod-uncached.yaml</text></symbol><symbol id="5"><text x="1.002" y="1.67" class="g">INFO</text><text x="6.012" y="1.67" class="f">ktime::cli:</text><text x="18.036" y="1.67" class="f">Pod</text><text x="22.044" y="1.67" class="f">`uncached`</text><text x="33.066" y="1.67" class="f">applied</text></symbol><symbol id="6"><text x="1.002" y="1.67" class="g">INFO</text><text x="6.012" y="1.67" class="f">ktime::cli:</text><text x="18.036" y="1.67" class="f">Waiting</text><text x="26.052" y="1.67" class="f">for</text><text x="30.06" y="1.67" class="f">pod</text><text x="34.068" y="1.67" class="f">`uncached`</text><text x="45.09" y="1.67" class="f">to</text><text x="48.096" y="1.67" class="f">be</text><text x="51.102" y="1.67" class="f">in</text><text x="54.108" y="1.67" class="f">the</text><text x="58.116" y="1.67" class="f">`Running`</text><text x="68.136" y="1.67" class="f">phase...</text></symbol><symbol id="7"><text x="1.002" y="1.67" class="g">INFO</text><text x="6.012" y="1.67" class="f">ktime::cli:</text><text x="18.036" y="1.67" class="f">Pod</text><text x="22.044" y="1.67" class="f">`uncached`</text><text x="33.066" y="1.67" class="f">=&gt;</text><text x="36.072" y="1.67" class="f">Running</text></symbol><symbol id="8"><text y="1.67" class="f">Initialize:</text><text x="12.024" y="1.67" class="f">0s</text></symbol><symbol id="9"><text y="1.67" class="f">Pod</text><text x="4.008" y="1.67" class="f">ready</text><text x="10.02" y="1.67" class="f">to</text><text x="13.026" y="1.67" class="f">start</text><text x="19.038" y="1.67" class="f">containers:</text><text x="31.062" y="1.67" class="f">399s</text></symbol><symbol id="10"><text y="1.67" class="f">Containers</text><text x="11.022" y="1.67" class="f">ready:</text><text x="18.036" y="1.67" class="f">399s</text></symbol><symbol id="11"><text y="1.67" class="f">Ready:</text><text x="7.014" y="1.67" class="f">399s</text></symbol><symbol id="12"><path fill="#b9c0cb" d="M0 0h1v2.171H0z"/><text y="1.67" style="white-space:pre" fill="#282d35" font-weight="700">%</text></symbol><symbol id="13"><path class="j" d="M0 0h1v2.171H0z"/><text y="1.67" class="f"></text><path class="j" d="M1.002 0h74v2.171h-74z"/><text x="1.002" y="1.67" class="k"> ~/Documents/bp/terraform-aws-eks-blueprints/patterns/ml-container-cache</text><path class="l" d="M75.15 0h2v2.171h-2z"/><text x="75.15" y="1.67" style="white-space:pre" fill="#71bef2"></text><path class="l" d="M77.154 0h3v2.171h-3z"/><text x="77.154" y="1.67" class="k"></text></symbol><symbol id="14"><path class="l" d="M0 0h36v2.171H0z"/><text y="1.67" class="k"> feat/container-image-cache   16</text><text x="36.072" y="1.67" class="g"></text><path class="l" d="M37.074 0h43v2.171h-43z"/><text x="37.074" y="1.67" class="k"></text></symbol><symbol id="15">0<text y="1.67" class="f"></text>0<text x="1.002" y="1.67" class="g"></text><text x="3.006" y="1.67" class="k"></text></symbol><symbol id="a"><path fill="transparent" d="M0 0h80v21H0z"/></symbol><symbol id="b"><path fill="#6f7683" d="M0 0h1.102v2.171H0z"/></symbol></defs><path class="a" d="M0 0h80v43.42H0z"/><g style="animation-duration:469.970405s;animation-iteration-count:infinite;animation-name:p;animation-timing-function:steps(1,end)"><svg width="4240"><svg><use xlink:href="#a"/><use xlink:href="#b" x="-.004"/></svg><svg x="80"><use xlink:href="#a"/><use xlink:href="#b" x=".996"/><text y="1.67" class="f">k</text></svg><svg x="160"><use xlink:href="#a"/><use xlink:href="#b" x="1.996"/><text y="1.67" class="f">kt</text></svg><svg x="240"><use xlink:href="#a"/><use xlink:href="#b" x="2.996"/><text y="1.67" class="f">kti</text></svg><svg x="320"><use xlink:href="#a"/><use xlink:href="#b" x="3.996"/><text y="1.67" class="f">ktim</text></svg><svg x="400"><use xlink:href="#a"/><use xlink:href="#b" x="4.996"/><use xlink:href="#1"/></svg><svg x="480"><use xlink:href="#a"/><use xlink:href="#b" x="5.996"/><use xlink:href="#1"/></svg><svg x="560"><use xlink:href="#a"/><use xlink:href="#b" x="6.996"/><text y="1.67" class="f">ktime</text><text x="6.012" y="1.67" class="f">a</text></svg><svg x="640"><use xlink:href="#a"/><use xlink:href="#b" x="7.996"/><text y="1.67" class="f">ktime</text><text x="6.012" y="1.67" class="f">ap</text></svg><svg x="720"><use xlink:href="#a"/><use xlink:href="#b" x="8.996"/><text y="1.67" class="f">ktime</text><text x="6.012" y="1.67" class="f">app</text></svg><svg x="800"><use xlink:href="#a"/><use xlink:href="#b" x="9.996"/><text y="1.67" class="f">ktime</text><text x="6.012" y="1.67" class="f">appl</text></svg><svg x="880"><use xlink:href="#a"/><use xlink:href="#b" x="10.996"/><use xlink:href="#2"/></svg><svg x="960"><use xlink:href="#a"/><use xlink:href="#b" x="11.996"/><use xlink:href="#2"/></svg><svg x="1040"><use xlink:href="#a"/><use xlink:href="#b" x="12.996"/><text y="1.67" class="f">ktime</text><text x="6.012" y="1.67" class="f">apply</text><text x="12.024" y="1.67" class="f">-</text></svg><svg x="1120"><use xlink:href="#a"/><use xlink:href="#b" x="13.996"/><use xlink:href="#3"/></svg><svg x="1200"><use xlink:href="#a"/><use xlink:href="#b" x="14.996"/><use xlink:href="#3"/></svg><svg x="1280"><use xlink:href="#a"/><use xlink:href="#b" x="15.996"/><text y="1.67" class="f">ktime</text><text x="6.012" y="1.67" class="f">apply</text><text x="12.024" y="1.67" class="f">-f</text><text x="15.03" y="1.67" class="f">p</text></svg><svg x="1360"><use xlink:href="#a"/><use xlink:href="#b" x="16.996"/><text y="1.67" class="f">ktime</text><text x="6.012" y="1.67" class="f">apply</text><text x="12.024" y="1.67" class="f">-f</text><text x="15.03" y="1.67" class="f">po</text></svg><svg x="1440"><use xlink:href="#a"/><use xlink:href="#b" x="17.996"/><text y="1.67" class="f">ktime</text><text x="6.012" y="1.67" class="f">apply</text><text x="12.024" y="1.67" class="f">-f</text><text x="15.03" y="1.67" class="f">pod</text></svg><svg x="1520"><use xlink:href="#a"/><use xlink:href="#b" x="18.996"/><text y="1.67" class="f">ktime</text><text x="6.012" y="1.67" class="f">apply</text><text x="12.024" y="1.67" class="f">-f</text><text x="15.03" y="1.67" class="f">pod-</text></svg><svg x="1600"><use xlink:href="#a"/><use xlink:href="#b" x="19.996"/><text y="1.67" class="f">ktime</text><text x="6.012" y="1.67" class="f">apply</text><text x="12.024" y="1.67" class="f">-f</text><text x="15.03" y="1.67" class="f">pod-u</text></svg><svg x="1680"><use xlink:href="#a"/><use xlink:href="#b" x="20.996"/><text y="1.67" class="f">ktime</text><text x="6.012" y="1.67" class="f">apply</text><text x="12.024" y="1.67" class="f">-f</text><text x="15.03" y="1.67" class="f">pod-un</text></svg><svg x="1760"><use xlink:href="#a"/><use xlink:href="#b" x="21.996"/><text y="1.67" class="f">ktime</text><text x="6.012" y="1.67" class="f">apply</text><text x="12.024" y="1.67" class="f">-f</text><text x="15.03" y="1.67" class="f">pod-unc</text></svg><svg x="1840"><use xlink:href="#a"/><use xlink:href="#b" x="22.996"/><text y="1.67" class="f">ktime</text><text x="6.012" y="1.67" class="f">apply</text><text x="12.024" y="1.67" class="f">-f</text><text x="15.03" y="1.67" class="f">pod-unca</text></svg><svg x="1920"><use xlink:href="#a"/><use xlink:href="#b" x="23.996"/><text y="1.67" class="f">ktime</text><text x="6.012" y="1.67" class="f">apply</text><text x="12.024" y="1.67" class="f">-f</text><text x="15.03" y="1.67" class="f">pod-uncac</text></svg><svg x="2000"><use xlink:href="#a"/><use xlink:href="#b" x="24.996"/><text y="1.67" class="f">ktime</text><text x="6.012" y="1.67" class="f">apply</text><text x="12.024" y="1.67" class="f">-f</text><text x="15.03" y="1.67" class="f">pod-uncach</text></svg><svg x="2080"><use xlink:href="#a"/><use xlink:href="#b" x="25.996"/><text y="1.67" class="f">ktime</text><text x="6.012" y="1.67" class="f">apply</text><text x="12.024" y="1.67" class="f">-f</text><text x="15.03" y="1.67" class="f">pod-uncache</text></svg><svg x="2160"><use xlink:href="#a"/><use xlink:href="#b" x="26.996"/><text y="1.67" class="f">ktime</text><text x="6.012" y="1.67" class="f">apply</text><text x="12.024" y="1.67" class="f">-f</text><text x="15.03" y="1.67" class="f">pod-uncached</text></svg><svg x="2240"><use xlink:href="#a"/><use xlink:href="#b" x="27.996"/><text y="1.67" class="f">ktime</text><text x="6.012" y="1.67" class="f">apply</text><text x="12.024" y="1.67" class="f">-f</text><text x="15.03" y="1.67" class="f">pod-uncached.</text></svg><svg x="2320"><use xlink:href="#a"/><use xlink:href="#b" x="28.996"/><text y="1.67" class="f">ktime</text><text x="6.012" y="1.67" class="f">apply</text><text x="12.024" y="1.67" class="f">-f</text><text x="15.03" y="1.67" class="f">pod-uncached.y</text></svg><svg x="2400"><use xlink:href="#a"/><use xlink:href="#b" x="29.996"/><text y="1.67" class="f">ktime</text><text x="6.012" y="1.67" class="f">apply</text><text x="12.024" y="1.67" class="f">-f</text><text x="15.03" y="1.67" class="f">pod-uncached.ya</text></svg><svg x="2480"><use xlink:href="#a"/><use xlink:href="#b" x="30.996"/><text y="1.67" class="f">ktime</text><text x="6.012" y="1.67" class="f">apply</text><text x="12.024" y="1.67" class="f">-f</text><text x="15.03" y="1.67" class="f">pod-uncached.yam</text></svg><svg x="2560"><use xlink:href="#a"/><use xlink:href="#b" x="31.996"/><use xlink:href="#4"/></svg><svg x="2640"><use xlink:href="#a"/><use xlink:href="#b" x="-.004" y="2.146"/><use xlink:href="#4"/></svg><svg x="2720"><use xlink:href="#a"/><use xlink:href="#b" x="-.004" y="4.317"/><use xlink:href="#4"/><use xlink:href="#5" y="2.171"/></svg><svg x="2800"><use xlink:href="#a"/><use xlink:href="#b" x="-.004" y="6.488"/><use xlink:href="#4"/><use xlink:href="#5" y="2.171"/><use xlink:href="#6" y="4.342"/></svg><svg x="2880"><use xlink:href="#a"/><use xlink:href="#b" x="-.004" y="8.659"/><use xlink:href="#4"/><use xlink:href="#5" y="2.171"/><use xlink:href="#6" y="4.342"/><use xlink:href="#6" y="6.513"/></svg><svg x="2960"><use xlink:href="#a"/><use xlink:href="#b" x="-.004" y="10.83"/><use xlink:href="#4"/><use xlink:href="#5" y="2.171"/><use xlink:href="#6" y="4.342"/><use xlink:href="#6" y="6.513"/><use xlink:href="#6" y="8.684"/></svg><svg x="3040"><use xlink:href="#a"/><use xlink:href="#b" x="-.004" y="13.001"/><use xlink:href="#4"/><use xlink:href="#5" y="2.171"/><use xlink:href="#6" y="4.342"/><use xlink:href="#6" y="6.513"/><use xlink:href="#6" y="8.684"/><use xlink:href="#6" y="10.855"/></svg><svg x="3120"><use xlink:href="#a"/><use xlink:href="#b" x="-.004" y="15.172"/><use xlink:href="#4"/><use xlink:href="#5" y="2.171"/><use xlink:href="#6" y="4.342"/><use xlink:href="#6" y="6.513"/><use xlink:href="#6" y="8.684"/><use xlink:href="#6" y="10.855"/><use xlink:href="#6" y="13.026"/></svg><svg x="3200"><use xlink:href="#a"/><use xlink:href="#b" x="-.004" y="17.343"/><use xlink:href="#4"/><use xlink:href="#5" y="2.171"/><use xlink:href="#6" y="4.342"/><use xlink:href="#6" y="6.513"/><use xlink:href="#6" y="8.684"/><use xlink:href="#6" y="10.855"/><use xlink:href="#6" y="13.026"/><use xlink:href="#6" y="15.197"/></svg><svg x="3280"><use xlink:href="#a"/><use xlink:href="#b" x="-.004" y="19.514"/><use xlink:href="#4"/><use xlink:href="#5" y="2.171"/><use xlink:href="#6" y="4.342"/><use xlink:href="#6" y="6.513"/><use xlink:href="#6" y="8.684"/><use xlink:href="#6" y="10.855"/><use xlink:href="#6" y="13.026"/><use xlink:href="#6" y="15.197"/><use xlink:href="#6" y="17.368"/></svg><svg x="3360"><use xlink:href="#a"/><use xlink:href="#b" x="-.004" y="21.685"/><use xlink:href="#4"/><use xlink:href="#5" y="2.171"/><use xlink:href="#6" y="4.342"/><use xlink:href="#6" y="6.513"/><use xlink:href="#6" y="8.684"/><use xlink:href="#6" y="10.855"/><use xlink:href="#6" y="13.026"/><use xlink:href="#6" y="15.197"/><use xlink:href="#6" y="17.368"/><use xlink:href="#6" y="19.539"/></svg><svg x="3440"><use xlink:href="#a"/><use xlink:href="#b" x="-.004" y="23.856"/><use xlink:href="#4"/><use xlink:href="#5" y="2.171"/><use xlink:href="#6" y="4.342"/><use xlink:href="#6" y="6.513"/><use xlink:href="#6" y="8.684"/><use xlink:href="#6" y="10.855"/><use xlink:href="#6" y="13.026"/><use xlink:href="#6" y="15.197"/><use xlink:href="#6" y="17.368"/><use xlink:href="#6" y="19.539"/><use xlink:href="#6" y="21.71"/></svg><svg x="3520"><use xlink:href="#a"/><use xlink:href="#b" x="-.004" y="26.027"/><use xlink:href="#4"/><use xlink:href="#5" y="2.171"/><use xlink:href="#6" y="4.342"/><use xlink:href="#6" y="6.513"/><use xlink:href="#6" y="8.684"/><use xlink:href="#6" y="10.855"/><use xlink:href="#6" y="13.026"/><use xlink:href="#6" y="15.197"/><use xlink:href="#6" y="17.368"/><use xlink:href="#6" y="19.539"/><use xlink:href="#6" y="21.71"/><use xlink:href="#6" y="23.881"/></svg><svg x="3600"><use xlink:href="#a"/><use xlink:href="#b" x="-.004" y="28.198"/><use xlink:href="#4"/><use xlink:href="#5" y="2.171"/><use xlink:href="#6" y="4.342"/><use xlink:href="#6" y="6.513"/><use xlink:href="#6" y="8.684"/><use xlink:href="#6" y="10.855"/><use xlink:href="#6" y="13.026"/><use xlink:href="#6" y="15.197"/><use xlink:href="#6" y="17.368"/><use xlink:href="#6" y="19.539"/><use xlink:href="#6" y="21.71"/><use xlink:href="#6" y="23.881"/><use xlink:href="#6" y="26.052"/></svg><svg x="3680"><use xlink:href="#a"/><use xlink:href="#b" x="-.004" y="30.369"/><use xlink:href="#4"/><use xlink:href="#5" y="2.171"/><use xlink:href="#6" y="4.342"/><use xlink:href="#6" y="6.513"/><use xlink:href="#6" y="8.684"/><use xlink:href="#6" y="10.855"/><use xlink:href="#6" y="13.026"/><use xlink:href="#6" y="15.197"/><use xlink:href="#6" y="17.368"/><use xlink:href="#6" y="19.539"/><use xlink:href="#6" y="21.71"/><use xlink:href="#6" y="23.881"/><use xlink:href="#6" y="26.052"/><use xlink:href="#6" y="28.223"/></svg><svg x="3760"><use xlink:href="#a"/><use xlink:href="#b" x="-.004" y="32.54"/><use xlink:href="#4"/><use xlink:href="#5" y="2.171"/><use xlink:href="#6" y="4.342"/><use xlink:href="#6" y="6.513"/><use xlink:href="#6" y="8.684"/><use xlink:href="#6" y="10.855"/><use xlink:href="#6" y="13.026"/><use xlink:href="#6" y="15.197"/><use xlink:href="#6" y="17.368"/><use xlink:href="#6" y="19.539"/><use xlink:href="#6" y="21.71"/><use xlink:href="#6" y="23.881"/><use xlink:href="#6" y="26.052"/><use xlink:href="#6" y="28.223"/><use xlink:href="#6" y="30.394"/></svg><svg x="3840"><use xlink:href="#a"/><use xlink:href="#b" x="-.004" y="34.711"/><use xlink:href="#4"/><use xlink:href="#5" y="2.171"/><use xlink:href="#6" y="4.342"/><use xlink:href="#6" y="6.513"/><use xlink:href="#6" y="8.684"/><use xlink:href="#6" y="10.855"/><use xlink:href="#6" y="13.026"/><use xlink:href="#6" y="15.197"/><use xlink:href="#6" y="17.368"/><use xlink:href="#6" y="19.539"/><use xlink:href="#6" y="21.71"/><use xlink:href="#6" y="23.881"/><use xlink:href="#6" y="26.052"/><use xlink:href="#6" y="28.223"/><use xlink:href="#6" y="30.394"/><use xlink:href="#7" y="32.565"/></svg><svg x="3920"><use xlink:href="#a"/><use xlink:href="#b" x="-.004" y="43.395"/><use xlink:href="#4"/><use xlink:href="#5" y="2.171"/><use xlink:href="#6" y="4.342"/><use xlink:href="#6" y="6.513"/><use xlink:href="#6" y="8.684"/><use xlink:href="#6" y="10.855"/><use xlink:href="#6" y="13.026"/><use xlink:href="#6" y="15.197"/><use xlink:href="#6" y="17.368"/><use xlink:href="#6" y="19.539"/><use xlink:href="#6" y="21.71"/><use xlink:href="#6" y="23.881"/><use xlink:href="#6" y="26.052"/><use xlink:href="#6" y="28.223"/><use xlink:href="#6" y="30.394"/><use xlink:href="#7" y="32.565"/><use xlink:href="#8" y="34.736"/><use xlink:href="#9" y="36.907"/><use xlink:href="#10" y="39.078"/><use xlink:href="#11" y="41.249"/></svg><svg x="4000"><use xlink:href="#a"/><use xlink:href="#b" x="-.004" y="43.395"/><use xlink:href="#6"/><use xlink:href="#6" y="2.171"/><use xlink:href="#6" y="4.342"/><use xlink:href="#6" y="6.513"/><use xlink:href="#6" y="8.684"/><use xlink:href="#6" y="10.855"/><use xlink:href="#6" y="13.026"/><use xlink:href="#6" y="15.197"/><use xlink:href="#6" y="17.368"/><use xlink:href="#6" y="19.539"/><use xlink:href="#6" y="21.71"/><use xlink:href="#6" y="23.881"/><use xlink:href="#6" y="26.052"/><use xlink:href="#7" y="28.223"/><use xlink:href="#8" y="30.394"/><use xlink:href="#9" y="32.565"/><use xlink:href="#10" y="34.736"/><use xlink:href="#11" y="36.907"/><use xlink:href="#12" y="39.078"/></svg><svg x="4080"><use xlink:href="#a"/><use xlink:href="#b" x="-.004" y="43.395"/><use xlink:href="#6"/><use xlink:href="#6" y="2.171"/><use xlink:href="#6" y="4.342"/><use xlink:href="#6" y="6.513"/><use xlink:href="#6" y="8.684"/><use xlink:href="#6" y="10.855"/><use xlink:href="#6" y="13.026"/><use xlink:href="#6" y="15.197"/><use xlink:href="#6" y="17.368"/><use xlink:href="#6" y="19.539"/><use xlink:href="#7" y="21.71"/><use xlink:href="#8" y="23.881"/><use xlink:href="#9" y="26.052"/><use xlink:href="#10" y="28.223"/><use xlink:href="#11" y="30.394"/><use xlink:href="#12" y="32.565"/><use xlink:href="#13" y="39.078"/><use xlink:href="#14" y="41.249"/><use xlink:href="#15" y="43.42"/></svg><svg x="4160"><use xlink:href="#a"/><use xlink:href="#b" x="-.004" y="43.395"/><use xlink:href="#6"/><use xlink:href="#6" y="2.171"/><use xlink:href="#6" y="4.342"/><use xlink:href="#6" y="6.513"/><use xlink:href="#6" y="8.684"/><use xlink:href="#6" y="10.855"/><use xlink:href="#6" y="13.026"/><use xlink:href="#6" y="15.197"/><use xlink:href="#6" y="17.368"/><use xlink:href="#7" y="19.539"/><use xlink:href="#8" y="21.71"/><use xlink:href="#9" y="23.881"/><use xlink:href="#10" y="26.052"/><use xlink:href="#11" y="28.223"/><use xlink:href="#12" y="30.394"/><use xlink:href="#13" y="36.907"/><use xlink:href="#14" y="39.078"/><use xlink:href="#15" y="41.249"/></svg></svg></g></g></svg></svg>