<svg xmlns="http://www.w3.org/2000/svg" xmlns:xlink="http://www.w3.org/1999/xlink" width="890" height="624.46"><rect width="890" height="624.46" rx="5" ry="5" class="a"/><svg y="0%" x="0%"><circle cx="20" cy="20" r="6" fill="#ff5f58"/><circle cx="40" cy="20" r="6" fill="#ffbd2e"/><circle cx="60" cy="20" r="6" fill="#18c132"/></svg><svg height="564.46" viewBox="0 0 85 56.446" width="850" x="15" xmlns="http://www.w3.org/2000/svg" xmlns:xlink="http://www.w3.org/1999/xlink" y="50"><style>@keyframes j{0%{transform:translateX(0)}.29%{transform:translateX(-85px)}.291%{transform:translateX(-170px)}.293%{transform:translateX(-425px)}.493%{transform:translateX(-510px)}.557%{transform:translateX(-595px)}.578%{transform:translateX(-680px)}.625%{transform:translateX(-765px)}.653%{transform:translateX(-850px)}.683%{transform:translateX(-935px)}.743%{transform:translateX(-1020px)}.785%{transform:translateX(-1105px)}.825%{transform:translateX(-1190px)}.871%{transform:translateX(-1275px)}.926%{transform:translateX(-1360px)}.967%{transform:translateX(-1445px)}1.107%{transform:translateX(-1530px)}1.149%{transform:translateX(-1615px)}1.21%{transform:translateX(-1700px)}1.239%{transform:translateX(-1785px)}1.292%{transform:translateX(-1870px)}1.333%{transform:translateX(-1955px)}1.36%{transform:translateX(-2040px)}1.49%{transform:translateX(-2125px)}1.542%{transform:translateX(-2210px)}1.577%{transform:translateX(-2295px)}1.65%{transform:translateX(-2380px)}1.763%{transform:translateX(-2465px)}1.815%{transform:translateX(-2550px)}1.866%{transform:translateX(-2635px)}1.888%{transform:translateX(-2720px)}1.945%{transform:translateX(-2805px)}1.98%{transform:translateX(-2890px)}2.021%{transform:translateX(-2975px)}2.068%{transform:translateX(-3060px)}2.169%{transform:translateX(-3145px)}2.227%{transform:translateX(-3230px)}2.26%{transform:translateX(-3315px)}2.291%{transform:translateX(-3400px)}2.334%{transform:translateX(-3485px)}2.569%{transform:translateX(-3655px)}2.57%{transform:translateX(-3740px)}3.001%{transform:translateX(-3825px)}11.617%{transform:translateX(-3910px)}20.233%{transform:translateX(-3995px)}28.854%{transform:translateX(-4080px)}37.508%{transform:translateX(-4165px)}46.192%{transform:translateX(-4250px)}54.833%{transform:translateX(-4335px)}63.449%{transform:translateX(-4420px)}72.065%{transform:translateX(-4505px)}80.683%{transform:translateX(-4590px)}89.356%{transform:translateX(-4675px)}97.972%{transform:translateX(-4760px)}98.352%{transform:translateX(-4845px)}98.46%{transform:translateX(-5015px)}98.462%{transform:translateX(-5100px)}98.464%{transform:translateX(-5355px)}99.579%{transform:translateX(-5440px)}99.697%{transform:translateX(-5525px)}99.765%{transform:translateX(-5610px)}99.807%{transform:translateX(-5695px)}to{transform:translateX(-5950px)}}.a{fill:#282d35}.f,.g{fill:#b9c0cb;white-space:pre}.g{fill:#a8cc8c}</style><g font-family="Monaco,Consolas,Menlo,'Bitstream Vera Sans Mono','Powerline Symbols',monospace" font-size="1.67"><defs><symbol id="1"><text y="1.67" class="f">bbiggs%</text></symbol><symbol id="2"><text y="1.67" class="f">bbiggs%</text><text x="8.016" y="1.67" class="f">ktime</text></symbol><symbol id="3"><text y="1.67" class="f">bbiggs%</text><text x="8.016" y="1.67" class="f">ktime</text><text x="14.028" y="1.67" class="f">apply</text></symbol><symbol id="4"><text y="1.67" class="f">bbiggs%</text><text x="8.016" y="1.67" class="f">ktime</text><text x="14.028" y="1.67" class="f">apply</text><text x="20.04" y="1.67" class="f">--file</text></symbol><symbol id="5"><text y="1.67" class="f">bbiggs%</text><text x="8.016" y="1.67" class="f">ktime</text><text x="14.028" y="1.67" class="f">apply</text><text x="20.04" y="1.67" class="f">--file</text><text x="27.054" y="1.67" class="f">pod-uncached.yaml</text></symbol><symbol id="6"><text x="1.002" y="1.67" class="g">INFO</text><text x="6.012" y="1.67" class="f">ktime::cli:</text><text x="18.036" y="1.67" class="f">Pod</text><text x="22.044" y="1.67" class="f">`uncached`</text><text x="33.066" y="1.67" class="f">applied</text></symbol><symbol id="7"><text x="1.002" y="1.67" class="g">INFO</text><text x="6.012" y="1.67" class="f">ktime::cli:</text><text x="18.036" y="1.67" class="f">Waiting</text><text x="26.052" y="1.67" class="f">for</text><text x="30.06" y="1.67" class="f">pod</text><text x="34.068" y="1.67" class="f">`uncached`</text><text x="45.09" y="1.67" class="f">to</text><text x="48.096" y="1.67" class="f">be</text><text x="51.102" y="1.67" class="f">in</text><text x="54.108" y="1.67" class="f">the</text><text x="58.116" y="1.67" class="f">`Running`</text><text x="68.136" y="1.67" class="f">phase...</text></symbol><symbol id="8"><text x="1.002" y="1.67" class="g">INFO</text><text x="6.012" y="1.67" class="f">ktime::cli:</text><text x="18.036" y="1.67" class="f">Pod</text><text x="22.044" y="1.67" class="f">`uncached`</text><text x="33.066" y="1.67" class="f">=&gt;</text><text x="36.072" y="1.67" class="f">Running</text></symbol><symbol id="9"><text y="1.67" class="f">Initialize:</text><text x="12.024" y="1.67" class="f">0s</text></symbol><symbol id="10"><text y="1.67" class="f">Pod</text><text x="4.008" y="1.67" class="f">ready</text><text x="10.02" y="1.67" class="f">to</text><text x="13.026" y="1.67" class="f">start</text><text x="19.038" y="1.67" class="f">containers:</text><text x="31.062" y="1.67" class="f">334s</text></symbol><symbol id="11"><text y="1.67" class="f">Containers</text><text x="11.022" y="1.67" class="f">ready:</text><text x="18.036" y="1.67" class="f">334s</text></symbol><symbol id="12"><text y="1.67" class="f">Ready:</text><text x="7.014" y="1.67" class="f">334s</text></symbol><symbol id="13"><text y="1.67" class="f">bbiggs%</text><text x="8.016" y="1.67" class="f">exit</text></symbol><symbol id="a"><path fill="transparent" d="M0 0h85v26H0z"/></symbol><symbol id="b"><path fill="#6f7683" d="M0 0h1.102v2.171H0z"/></symbol></defs><path class="a" d="M0 0h85v56.446H0z"/><g style="animation-duration:350.892426s;animation-iteration-count:infinite;animation-name:j;animation-timing-function:steps(1,end)"><svg width="6035"><svg><use xlink:href="#a"/><use xlink:href="#b" x="-.004"/></svg><svg x="85"><use xlink:href="#a"/><use xlink:href="#b" x="-.004"/></svg><svg x="170"><use xlink:href="#a"/><use xlink:href="#b" x="-.004"/></svg><svg x="255"><use xlink:href="#a"/><use xlink:href="#b" x="-.004"/></svg><svg x="340"><use xlink:href="#a"/><use xlink:href="#b" x="7.996"/><use xlink:href="#1"/></svg><svg x="425"><use xlink:href="#a"/><use xlink:href="#b" x="7.996"/><use xlink:href="#1"/></svg><svg x="510"><use xlink:href="#a"/><use xlink:href="#b" x="8.996"/><text y="1.67" class="f">bbiggs%</text><text x="8.016" y="1.67" class="f">k</text></svg><svg x="595"><use xlink:href="#a"/><use xlink:href="#b" x="9.996"/><text y="1.67" class="f">bbiggs%</text><text x="8.016" y="1.67" class="f">kt</text></svg><svg x="680"><use xlink:href="#a"/><use xlink:href="#b" x="10.996"/><text y="1.67" class="f">bbiggs%</text><text x="8.016" y="1.67" class="f">kti</text></svg><svg x="765"><use xlink:href="#a"/><use xlink:href="#b" x="11.996"/><text y="1.67" class="f">bbiggs%</text><text x="8.016" y="1.67" class="f">ktim</text></svg><svg x="850"><use xlink:href="#a"/><use xlink:href="#b" x="12.996"/><use xlink:href="#2"/></svg><svg x="935"><use xlink:href="#a"/><use xlink:href="#b" x="13.996"/><use xlink:href="#2"/></svg><svg x="1020"><use xlink:href="#a"/><use xlink:href="#b" x="14.996"/><text y="1.67" class="f">bbiggs%</text><text x="8.016" y="1.67" class="f">ktime</text><text x="14.028" y="1.67" class="f">a</text></svg><svg x="1105"><use xlink:href="#a"/><use xlink:href="#b" x="15.996"/><text y="1.67" class="f">bbiggs%</text><text x="8.016" y="1.67" class="f">ktime</text><text x="14.028" y="1.67" class="f">ap</text></svg><svg x="1190"><use xlink:href="#a"/><use xlink:href="#b" x="16.996"/><text y="1.67" class="f">bbiggs%</text><text x="8.016" y="1.67" class="f">ktime</text><text x="14.028" y="1.67" class="f">app</text></svg><svg x="1275"><use xlink:href="#a"/><use xlink:href="#b" x="17.996"/><text y="1.67" class="f">bbiggs%</text><text x="8.016" y="1.67" class="f">ktime</text><text x="14.028" y="1.67" class="f">appl</text></svg><svg x="1360"><use xlink:href="#a"/><use xlink:href="#b" x="18.996"/><use xlink:href="#3"/></svg><svg x="1445"><use xlink:href="#a"/><use xlink:href="#b" x="19.996"/><use xlink:href="#3"/></svg><svg x="1530"><use xlink:href="#a"/><use xlink:href="#b" x="20.996"/><text y="1.67" class="f">bbiggs%</text><text x="8.016" y="1.67" class="f">ktime</text><text x="14.028" y="1.67" class="f">apply</text><text x="20.04" y="1.67" class="f">-</text></svg><svg x="1615"><use xlink:href="#a"/><use xlink:href="#b" x="21.996"/><text y="1.67" class="f">bbiggs%</text><text x="8.016" y="1.67" class="f">ktime</text><text x="14.028" y="1.67" class="f">apply</text><text x="20.04" y="1.67" class="f">--</text></svg><svg x="1700"><use xlink:href="#a"/><use xlink:href="#b" x="22.996"/><text y="1.67" class="f">bbiggs%</text><text x="8.016" y="1.67" class="f">ktime</text><text x="14.028" y="1.67" class="f">apply</text><text x="20.04" y="1.67" class="f">--f</text></svg><svg x="1785"><use xlink:href="#a"/><use xlink:href="#b" x="23.996"/><text y="1.67" class="f">bbiggs%</text><text x="8.016" y="1.67" class="f">ktime</text><text x="14.028" y="1.67" class="f">apply</text><text x="20.04" y="1.67" class="f">--fi</text></svg><svg x="1870"><use xlink:href="#a"/><use xlink:href="#b" x="24.996"/><text y="1.67" class="f">bbiggs%</text><text x="8.016" y="1.67" class="f">ktime</text><text x="14.028" y="1.67" class="f">apply</text><text x="20.04" y="1.67" class="f">--fil</text></svg><svg x="1955"><use xlink:href="#a"/><use xlink:href="#b" x="25.996"/><use xlink:href="#4"/></svg><svg x="2040"><use xlink:href="#a"/><use xlink:href="#b" x="26.996"/><use xlink:href="#4"/></svg><svg x="2125"><use xlink:href="#a"/><use xlink:href="#b" x="27.996"/><text y="1.67" class="f">bbiggs%</text><text x="8.016" y="1.67" class="f">ktime</text><text x="14.028" y="1.67" class="f">apply</text><text x="20.04" y="1.67" class="f">--file</text><text x="27.054" y="1.67" class="f">p</text></svg><svg x="2210"><use xlink:href="#a"/><use xlink:href="#b" x="28.996"/><text y="1.67" class="f">bbiggs%</text><text x="8.016" y="1.67" class="f">ktime</text><text x="14.028" y="1.67" class="f">apply</text><text x="20.04" y="1.67" class="f">--file</text><text x="27.054" y="1.67" class="f">po</text></svg><svg x="2295"><use xlink:href="#a"/><use xlink:href="#b" x="29.996"/><text y="1.67" class="f">bbiggs%</text><text x="8.016" y="1.67" class="f">ktime</text><text x="14.028" y="1.67" class="f">apply</text><text x="20.04" y="1.67" class="f">--file</text><text x="27.054" y="1.67" class="f">pod</text></svg><svg x="2380"><use xlink:href="#a"/><use xlink:href="#b" x="30.996"/><text y="1.67" class="f">bbiggs%</text><text x="8.016" y="1.67" class="f">ktime</text><text x="14.028" y="1.67" class="f">apply</text><text x="20.04" y="1.67" class="f">--file</text><text x="27.054" y="1.67" class="f">pod-</text></svg><svg x="2465"><use xlink:href="#a"/><use xlink:href="#b" x="31.996"/><text y="1.67" class="f">bbiggs%</text><text x="8.016" y="1.67" class="f">ktime</text><text x="14.028" y="1.67" class="f">apply</text><text x="20.04" y="1.67" class="f">--file</text><text x="27.054" y="1.67" class="f">pod-u</text></svg><svg x="2550"><use xlink:href="#a"/><use xlink:href="#b" x="32.996"/><text y="1.67" class="f">bbiggs%</text><text x="8.016" y="1.67" class="f">ktime</text><text x="14.028" y="1.67" class="f">apply</text><text x="20.04" y="1.67" class="f">--file</text><text x="27.054" y="1.67" class="f">pod-un</text></svg><svg x="2635"><use xlink:href="#a"/><use xlink:href="#b" x="33.996"/><text y="1.67" class="f">bbiggs%</text><text x="8.016" y="1.67" class="f">ktime</text><text x="14.028" y="1.67" class="f">apply</text><text x="20.04" y="1.67" class="f">--file</text><text x="27.054" y="1.67" class="f">pod-unc</text></svg><svg x="2720"><use xlink:href="#a"/><use xlink:href="#b" x="34.996"/><text y="1.67" class="f">bbiggs%</text><text x="8.016" y="1.67" class="f">ktime</text><text x="14.028" y="1.67" class="f">apply</text><text x="20.04" y="1.67" class="f">--file</text><text x="27.054" y="1.67" class="f">pod-unca</text></svg><svg x="2805"><use xlink:href="#a"/><use xlink:href="#b" x="35.996"/><text y="1.67" class="f">bbiggs%</text><text x="8.016" y="1.67" class="f">ktime</text><text x="14.028" y="1.67" class="f">apply</text><text x="20.04" y="1.67" class="f">--file</text><text x="27.054" y="1.67" class="f">pod-uncac</text></svg><svg x="2890"><use xlink:href="#a"/><use xlink:href="#b" x="36.996"/><text y="1.67" class="f">bbiggs%</text><text x="8.016" y="1.67" class="f">ktime</text><text x="14.028" y="1.67" class="f">apply</text><text x="20.04" y="1.67" class="f">--file</text><text x="27.054" y="1.67" class="f">pod-uncach</text></svg><svg x="2975"><use xlink:href="#a"/><use xlink:href="#b" x="37.996"/><text y="1.67" class="f">bbiggs%</text><text x="8.016" y="1.67" class="f">ktime</text><text x="14.028" y="1.67" class="f">apply</text><text x="20.04" y="1.67" class="f">--file</text><text x="27.054" y="1.67" class="f">pod-uncache</text></svg><svg x="3060"><use xlink:href="#a"/><use xlink:href="#b" x="38.996"/><text y="1.67" class="f">bbiggs%</text><text x="8.016" y="1.67" class="f">ktime</text><text x="14.028" y="1.67" class="f">apply</text><text x="20.04" y="1.67" class="f">--file</text><text x="27.054" y="1.67" class="f">pod-uncached</text></svg><svg x="3145"><use xlink:href="#a"/><use xlink:href="#b" x="39.996"/><text y="1.67" class="f">bbiggs%</text><text x="8.016" y="1.67" class="f">ktime</text><text x="14.028" y="1.67" class="f">apply</text><text x="20.04" y="1.67" class="f">--file</text><text x="27.054" y="1.67" class="f">pod-uncached.</text></svg><svg x="3230"><use xlink:href="#a"/><use xlink:href="#b" x="40.996"/><text y="1.67" class="f">bbiggs%</text><text x="8.016" y="1.67" class="f">ktime</text><text x="14.028" y="1.67" class="f">apply</text><text x="20.04" y="1.67" class="f">--file</text><text x="27.054" y="1.67" class="f">pod-uncached.y</text></svg><svg x="3315"><use xlink:href="#a"/><use xlink:href="#b" x="41.996"/><text y="1.67" class="f">bbiggs%</text><text x="8.016" y="1.67" class="f">ktime</text><text x="14.028" y="1.67" class="f">apply</text><text x="20.04" y="1.67" class="f">--file</text><text x="27.054" y="1.67" class="f">pod-uncached.ya</text></svg><svg x="3400"><use xlink:href="#a"/><use xlink:href="#b" x="42.996"/><text y="1.67" class="f">bbiggs%</text><text x="8.016" y="1.67" class="f">ktime</text><text x="14.028" y="1.67" class="f">apply</text><text x="20.04" y="1.67" class="f">--file</text><text x="27.054" y="1.67" class="f">pod-uncached.yam</text></svg><svg x="3485"><use xlink:href="#a"/><use xlink:href="#b" x="43.996"/><use xlink:href="#5"/></svg><svg x="3570"><use xlink:href="#a"/><use xlink:href="#b" x="43.996"/><use xlink:href="#5"/></svg><svg x="3655"><use xlink:href="#a"/><use xlink:href="#b" x="-.004" y="2.146"/><use xlink:href="#5"/></svg><svg x="3740"><use xlink:href="#a"/><use xlink:href="#b" x="-.004" y="2.146"/><use xlink:href="#5"/></svg><svg x="3825"><use xlink:href="#a"/><use xlink:href="#b" x="-.004" y="4.317"/><use xlink:href="#5"/><use xlink:href="#6" y="2.171"/></svg><svg x="3910"><use xlink:href="#a"/><use xlink:href="#b" x="-.004" y="6.488"/><use xlink:href="#5"/><use xlink:href="#6" y="2.171"/><use xlink:href="#7" y="4.342"/></svg><svg x="3995"><use xlink:href="#a"/><use xlink:href="#b" x="-.004" y="8.659"/><use xlink:href="#5"/><use xlink:href="#6" y="2.171"/><use xlink:href="#7" y="4.342"/><use xlink:href="#7" y="6.513"/></svg><svg x="4080"><use xlink:href="#a"/><use xlink:href="#b" x="-.004" y="10.83"/><use xlink:href="#5"/><use xlink:href="#6" y="2.171"/><use xlink:href="#7" y="4.342"/><use xlink:href="#7" y="6.513"/><use xlink:href="#7" y="8.684"/></svg><svg x="4165"><use xlink:href="#a"/><use xlink:href="#b" x="-.004" y="13.001"/><use xlink:href="#5"/><use xlink:href="#6" y="2.171"/><use xlink:href="#7" y="4.342"/><use xlink:href="#7" y="6.513"/><use xlink:href="#7" y="8.684"/><use xlink:href="#7" y="10.855"/></svg><svg x="4250"><use xlink:href="#a"/><use xlink:href="#b" x="-.004" y="15.172"/><use xlink:href="#5"/><use xlink:href="#6" y="2.171"/><use xlink:href="#7" y="4.342"/><use xlink:href="#7" y="6.513"/><use xlink:href="#7" y="8.684"/><use xlink:href="#7" y="10.855"/><use xlink:href="#7" y="13.026"/></svg><svg x="4335"><use xlink:href="#a"/><use xlink:href="#b" x="-.004" y="17.343"/><use xlink:href="#5"/><use xlink:href="#6" y="2.171"/><use xlink:href="#7" y="4.342"/><use xlink:href="#7" y="6.513"/><use xlink:href="#7" y="8.684"/><use xlink:href="#7" y="10.855"/><use xlink:href="#7" y="13.026"/><use xlink:href="#7" y="15.197"/></svg><svg x="4420"><use xlink:href="#a"/><use xlink:href="#b" x="-.004" y="19.514"/><use xlink:href="#5"/><use xlink:href="#6" y="2.171"/><use xlink:href="#7" y="4.342"/><use xlink:href="#7" y="6.513"/><use xlink:href="#7" y="8.684"/><use xlink:href="#7" y="10.855"/><use xlink:href="#7" y="13.026"/><use xlink:href="#7" y="15.197"/><use xlink:href="#7" y="17.368"/></svg><svg x="4505"><use xlink:href="#a"/><use xlink:href="#b" x="-.004" y="21.685"/><use xlink:href="#5"/><use xlink:href="#6" y="2.171"/><use xlink:href="#7" y="4.342"/><use xlink:href="#7" y="6.513"/><use xlink:href="#7" y="8.684"/><use xlink:href="#7" y="10.855"/><use xlink:href="#7" y="13.026"/><use xlink:href="#7" y="15.197"/><use xlink:href="#7" y="17.368"/><use xlink:href="#7" y="19.539"/></svg><svg x="4590"><use xlink:href="#a"/><use xlink:href="#b" x="-.004" y="23.856"/><use xlink:href="#5"/><use xlink:href="#6" y="2.171"/><use xlink:href="#7" y="4.342"/><use xlink:href="#7" y="6.513"/><use xlink:href="#7" y="8.684"/><use xlink:href="#7" y="10.855"/><use xlink:href="#7" y="13.026"/><use xlink:href="#7" y="15.197"/><use xlink:href="#7" y="17.368"/><use xlink:href="#7" y="19.539"/><use xlink:href="#7" y="21.71"/></svg><svg x="4675"><use xlink:href="#a"/><use xlink:href="#b" x="-.004" y="26.027"/><use xlink:href="#5"/><use xlink:href="#6" y="2.171"/><use xlink:href="#7" y="4.342"/><use xlink:href="#7" y="6.513"/><use xlink:href="#7" y="8.684"/><use xlink:href="#7" y="10.855"/><use xlink:href="#7" y="13.026"/><use xlink:href="#7" y="15.197"/><use xlink:href="#7" y="17.368"/><use xlink:href="#7" y="19.539"/><use xlink:href="#7" y="21.71"/><use xlink:href="#7" y="23.881"/></svg><svg x="4760"><use xlink:href="#a"/><use xlink:href="#b" x="-.004" y="28.198"/><use xlink:href="#5"/><use xlink:href="#6" y="2.171"/><use xlink:href="#7" y="4.342"/><use xlink:href="#7" y="6.513"/><use xlink:href="#7" y="8.684"/><use xlink:href="#7" y="10.855"/><use xlink:href="#7" y="13.026"/><use xlink:href="#7" y="15.197"/><use xlink:href="#7" y="17.368"/><use xlink:href="#7" y="19.539"/><use xlink:href="#7" y="21.71"/><use xlink:href="#7" y="23.881"/><use xlink:href="#7" y="26.052"/></svg><svg x="4845"><use xlink:href="#a"/><use xlink:href="#b" x="-.004" y="30.369"/><use xlink:href="#5"/><use xlink:href="#6" y="2.171"/><use xlink:href="#7" y="4.342"/><use xlink:href="#7" y="6.513"/><use xlink:href="#7" y="8.684"/><use xlink:href="#7" y="10.855"/><use xlink:href="#7" y="13.026"/><use xlink:href="#7" y="15.197"/><use xlink:href="#7" y="17.368"/><use xlink:href="#7" y="19.539"/><use xlink:href="#7" y="21.71"/><use xlink:href="#7" y="23.881"/><use xlink:href="#7" y="26.052"/><use xlink:href="#8" y="28.223"/></svg><svg x="4930"><use xlink:href="#a"/><use xlink:href="#b" x="-.004" y="39.053"/><use xlink:href="#5"/><use xlink:href="#6" y="2.171"/><use xlink:href="#7" y="4.342"/><use xlink:href="#7" y="6.513"/><use xlink:href="#7" y="8.684"/><use xlink:href="#7" y="10.855"/><use xlink:href="#7" y="13.026"/><use xlink:href="#7" y="15.197"/><use xlink:href="#7" y="17.368"/><use xlink:href="#7" y="19.539"/><use xlink:href="#7" y="21.71"/><use xlink:href="#7" y="23.881"/><use xlink:href="#7" y="26.052"/><use xlink:href="#8" y="28.223"/><use xlink:href="#9" y="30.394"/><use xlink:href="#10" y="32.565"/><use xlink:href="#11" y="34.736"/><use xlink:href="#12" y="36.907"/></svg><svg x="5015"><use xlink:href="#a"/><use xlink:href="#b" x="-.004" y="39.053"/><use xlink:href="#5"/><use xlink:href="#6" y="2.171"/><use xlink:href="#7" y="4.342"/><use xlink:href="#7" y="6.513"/><use xlink:href="#7" y="8.684"/><use xlink:href="#7" y="10.855"/><use xlink:href="#7" y="13.026"/><use xlink:href="#7" y="15.197"/><use xlink:href="#7" y="17.368"/><use xlink:href="#7" y="19.539"/><use xlink:href="#7" y="21.71"/><use xlink:href="#7" y="23.881"/><use xlink:href="#7" y="26.052"/><use xlink:href="#8" y="28.223"/><use xlink:href="#9" y="30.394"/><use xlink:href="#10" y="32.565"/><use xlink:href="#11" y="34.736"/><use xlink:href="#12" y="36.907"/></svg><svg x="5100"><use xlink:href="#a"/><use xlink:href="#b" x="-.004" y="39.053"/><use xlink:href="#5"/><use xlink:href="#6" y="2.171"/><use xlink:href="#7" y="4.342"/><use xlink:href="#7" y="6.513"/><use xlink:href="#7" y="8.684"/><use xlink:href="#7" y="10.855"/><use xlink:href="#7" y="13.026"/><use xlink:href="#7" y="15.197"/><use xlink:href="#7" y="17.368"/><use xlink:href="#7" y="19.539"/><use xlink:href="#7" y="21.71"/><use xlink:href="#7" y="23.881"/><use xlink:href="#7" y="26.052"/><use xlink:href="#8" y="28.223"/><use xlink:href="#9" y="30.394"/><use xlink:href="#10" y="32.565"/><use xlink:href="#11" y="34.736"/><use xlink:href="#12" y="36.907"/></svg><svg x="5185"><use xlink:href="#a"/><use xlink:href="#b" x="7.996" y="39.053"/><use xlink:href="#5"/><use xlink:href="#6" y="2.171"/><use xlink:href="#7" y="4.342"/><use xlink:href="#7" y="6.513"/><use xlink:href="#7" y="8.684"/><use xlink:href="#7" y="10.855"/><use xlink:href="#7" y="13.026"/><use xlink:href="#7" y="15.197"/><use xlink:href="#7" y="17.368"/><use xlink:href="#7" y="19.539"/><use xlink:href="#7" y="21.71"/><use xlink:href="#7" y="23.881"/><use xlink:href="#7" y="26.052"/><use xlink:href="#8" y="28.223"/><use xlink:href="#9" y="30.394"/><use xlink:href="#10" y="32.565"/><use xlink:href="#11" y="34.736"/><use xlink:href="#12" y="36.907"/><use xlink:href="#1" y="39.078"/></svg><svg x="5270"><use xlink:href="#a"/><use xlink:href="#b" x="7.996" y="39.053"/><use xlink:href="#5"/><use xlink:href="#6" y="2.171"/><use xlink:href="#7" y="4.342"/><use xlink:href="#7" y="6.513"/><use xlink:href="#7" y="8.684"/><use xlink:href="#7" y="10.855"/><use xlink:href="#7" y="13.026"/><use xlink:href="#7" y="15.197"/><use xlink:href="#7" y="17.368"/><use xlink:href="#7" y="19.539"/><use xlink:href="#7" y="21.71"/><use xlink:href="#7" y="23.881"/><use xlink:href="#7" y="26.052"/><use xlink:href="#8" y="28.223"/><use xlink:href="#9" y="30.394"/><use xlink:href="#10" y="32.565"/><use xlink:href="#11" y="34.736"/><use xlink:href="#12" y="36.907"/><use xlink:href="#1" y="39.078"/></svg><svg x="5355"><use xlink:href="#a"/><use xlink:href="#b" x="7.996" y="39.053"/><use xlink:href="#5"/><use xlink:href="#6" y="2.171"/><use xlink:href="#7" y="4.342"/><use xlink:href="#7" y="6.513"/><use xlink:href="#7" y="8.684"/><use xlink:href="#7" y="10.855"/><use xlink:href="#7" y="13.026"/><use xlink:href="#7" y="15.197"/><use xlink:href="#7" y="17.368"/><use xlink:href="#7" y="19.539"/><use xlink:href="#7" y="21.71"/><use xlink:href="#7" y="23.881"/><use xlink:href="#7" y="26.052"/><use xlink:href="#8" y="28.223"/><use xlink:href="#9" y="30.394"/><use xlink:href="#10" y="32.565"/><use xlink:href="#11" y="34.736"/><use xlink:href="#12" y="36.907"/><use xlink:href="#1" y="39.078"/></svg><svg x="5440"><use xlink:href="#a"/><use xlink:href="#b" x="8.996" y="39.053"/><use xlink:href="#5"/><use xlink:href="#6" y="2.171"/><use xlink:href="#7" y="4.342"/><use xlink:href="#7" y="6.513"/><use xlink:href="#7" y="8.684"/><use xlink:href="#7" y="10.855"/><use xlink:href="#7" y="13.026"/><use xlink:href="#7" y="15.197"/><use xlink:href="#7" y="17.368"/><use xlink:href="#7" y="19.539"/><use xlink:href="#7" y="21.71"/><use xlink:href="#7" y="23.881"/><use xlink:href="#7" y="26.052"/><use xlink:href="#8" y="28.223"/><use xlink:href="#9" y="30.394"/><use xlink:href="#10" y="32.565"/><use xlink:href="#11" y="34.736"/><use xlink:href="#12" y="36.907"/><text y="40.748" class="f">bbiggs%</text><text x="8.016" y="40.748" class="f">e</text></svg><svg x="5525"><use xlink:href="#a"/><use xlink:href="#b" x="9.996" y="39.053"/><use xlink:href="#5"/><use xlink:href="#6" y="2.171"/><use xlink:href="#7" y="4.342"/><use xlink:href="#7" y="6.513"/><use xlink:href="#7" y="8.684"/><use xlink:href="#7" y="10.855"/><use xlink:href="#7" y="13.026"/><use xlink:href="#7" y="15.197"/><use xlink:href="#7" y="17.368"/><use xlink:href="#7" y="19.539"/><use xlink:href="#7" y="21.71"/><use xlink:href="#7" y="23.881"/><use xlink:href="#7" y="26.052"/><use xlink:href="#8" y="28.223"/><use xlink:href="#9" y="30.394"/><use xlink:href="#10" y="32.565"/><use xlink:href="#11" y="34.736"/><use xlink:href="#12" y="36.907"/><text y="40.748" class="f">bbiggs%</text><text x="8.016" y="40.748" class="f">ex</text></svg><svg x="5610"><use xlink:href="#a"/><use xlink:href="#b" x="10.996" y="39.053"/><use xlink:href="#5"/><use xlink:href="#6" y="2.171"/><use xlink:href="#7" y="4.342"/><use xlink:href="#7" y="6.513"/><use xlink:href="#7" y="8.684"/><use xlink:href="#7" y="10.855"/><use xlink:href="#7" y="13.026"/><use xlink:href="#7" y="15.197"/><use xlink:href="#7" y="17.368"/><use xlink:href="#7" y="19.539"/><use xlink:href="#7" y="21.71"/><use xlink:href="#7" y="23.881"/><use xlink:href="#7" y="26.052"/><use xlink:href="#8" y="28.223"/><use xlink:href="#9" y="30.394"/><use xlink:href="#10" y="32.565"/><use xlink:href="#11" y="34.736"/><use xlink:href="#12" y="36.907"/><text y="40.748" class="f">bbiggs%</text><text x="8.016" y="40.748" class="f">exi</text></svg><svg x="5695"><use xlink:href="#a"/><use xlink:href="#b" x="11.996" y="39.053"/><use xlink:href="#5"/><use xlink:href="#6" y="2.171"/><use xlink:href="#7" y="4.342"/><use xlink:href="#7" y="6.513"/><use xlink:href="#7" y="8.684"/><use xlink:href="#7" y="10.855"/><use xlink:href="#7" y="13.026"/><use xlink:href="#7" y="15.197"/><use xlink:href="#7" y="17.368"/><use xlink:href="#7" y="19.539"/><use xlink:href="#7" y="21.71"/><use xlink:href="#7" y="23.881"/><use xlink:href="#7" y="26.052"/><use xlink:href="#8" y="28.223"/><use xlink:href="#9" y="30.394"/><use xlink:href="#10" y="32.565"/><use xlink:href="#11" y="34.736"/><use xlink:href="#12" y="36.907"/><use xlink:href="#13" y="39.078"/></svg><svg x="5780"><use xlink:href="#a"/><use xlink:href="#b" x="11.996" y="39.053"/><use xlink:href="#5"/><use xlink:href="#6" y="2.171"/><use xlink:href="#7" y="4.342"/><use xlink:href="#7" y="6.513"/><use xlink:href="#7" y="8.684"/><use xlink:href="#7" y="10.855"/><use xlink:href="#7" y="13.026"/><use xlink:href="#7" y="15.197"/><use xlink:href="#7" y="17.368"/><use xlink:href="#7" y="19.539"/><use xlink:href="#7" y="21.71"/><use xlink:href="#7" y="23.881"/><use xlink:href="#7" y="26.052"/><use xlink:href="#8" y="28.223"/><use xlink:href="#9" y="30.394"/><use xlink:href="#10" y="32.565"/><use xlink:href="#11" y="34.736"/><use xlink:href="#12" y="36.907"/><use xlink:href="#13" y="39.078"/></svg><svg x="5865"><use xlink:href="#a"/><use xlink:href="#b" x="-.004" y="41.224"/><use xlink:href="#5"/><use xlink:href="#6" y="2.171"/><use xlink:href="#7" y="4.342"/><use xlink:href="#7" y="6.513"/><use xlink:href="#7" y="8.684"/><use xlink:href="#7" y="10.855"/><use xlink:href="#7" y="13.026"/><use xlink:href="#7" y="15.197"/><use xlink:href="#7" y="17.368"/><use xlink:href="#7" y="19.539"/><use xlink:href="#7" y="21.71"/><use xlink:href="#7" y="23.881"/><use xlink:href="#7" y="26.052"/><use xlink:href="#8" y="28.223"/><use xlink:href="#9" y="30.394"/><use xlink:href="#10" y="32.565"/><use xlink:href="#11" y="34.736"/><use xlink:href="#12" y="36.907"/><use xlink:href="#13" y="39.078"/></svg><svg x="5950"><use xlink:href="#a"/><use xlink:href="#b" x="-.004" y="41.224"/><use xlink:href="#5"/><use xlink:href="#6" y="2.171"/><use xlink:href="#7" y="4.342"/><use xlink:href="#7" y="6.513"/><use xlink:href="#7" y="8.684"/><use xlink:href="#7" y="10.855"/><use xlink:href="#7" y="13.026"/><use xlink:href="#7" y="15.197"/><use xlink:href="#7" y="17.368"/><use xlink:href="#7" y="19.539"/><use xlink:href="#7" y="21.71"/><use xlink:href="#7" y="23.881"/><use xlink:href="#7" y="26.052"/><use xlink:href="#8" y="28.223"/><use xlink:href="#9" y="30.394"/><use xlink:href="#10" y="32.565"/><use xlink:href="#11" y="34.736"/><use xlink:href="#12" y="36.907"/><use xlink:href="#13" y="39.078"/></svg></svg></g></g></svg></svg>
